<?xml version="1.0" encoding="UTF-8"?>
<svg id="Layer_2" data-name="Layer 2" xmlns="http://www.w3.org/2000/svg" viewBox="0 0 480.09 403.26">
  <defs>
    <style>
      .cls-1 {
        fill: #a46d26;
      }
    </style>
  </defs>
  <g id="Layer_1" data-name="Layer 1">
    <g>
      <g>
        <g>
          <path class="cls-1" d="M15.98,281.81c-7.54-1.38-11.93-9.56-14.62-16.45-1.72-4.42-1.29-9.18-1.34-13.94l.34-3.71c.98-10.61,9.27-26.65,16.38-34.76l5.79-6.6c5.18-5.9,11.48-10.87,19.12-13.43,2.14-.72,5.16-.65,7.35-.46,2.49.22,4.99,1.16,7.2,2.06,3.95,1.61,6.59,4.76,9.19,7.92,2.8,3.4,3.86,7.26,4.32,11.72.13,1.22,1.26,2.34.87,3.94l.6,3.87-.03,7.37c-.56,2.82-.59,5.47-.94,8.16l-.96,7.44-1.15,6.94-1.01,4.54-.96,4.94c-.75,3.89-1.54,7.52-2.34,11.38l-.72,3.44-1.31,6.49-1.44,6.22-.88,4.29c-.73,3.59-1.57,9.5-1.42,12.59.13,2.68-.84,5.29.66,8.34,1.42-3.62,3.01-6.67,5.37-9.61l12.78-15.86,11.4-12.45c8.39-8.32,15.76-17.18,22.84-26.7.43-2.24.45-4.51,1.7-6.37l1.1-3.77c.71-2.42,1.89-5.2,3.57-7.11l8.11-9.3c1.69.34,4.01,1.82,4.11,3.73l-1.07,4.34-1.54,5.11-.25,4.92-.4,4.11-.14,5.95.15,8.07-.3,8.48-.03,5.36c-.01,1.72-.28,3.29-.34,4.91-.12,2.98.15,5.75-.55,8.68l-.72,8.5-.82,6.43-.93,5.08-.64,3.72c-.51,2.93-1.98,5.64-1.9,8.85l16.92-14.22c4.46-3.75,8.51-7.34,12.13-11.94,7.79-9.9,15.06-19.8,21.53-30.64,4.4-7.37,7.86-14.72,10.77-22.75s4.72-16.24,5.65-24.87l.92-8.47c-.13-7.49.03-15.15-1.56-22.5-2.65-12.26-10.15-22.91-21.05-28.74-5.12-2.74-18.86-2.29-24.43,2.52-2.86,2.47-5.1,9.19-3.28,13.02l-3.31,3.85c-4.06-1.95-5.39-6.43-3.68-10.46.88-2.08,1.64-3.82,3.21-5.53l6.07-6.62c4.2-4.58,9.88-6.44,16.03-6.35,4.14.07,8.15.21,11.95,2,4.27,2.01,7.63,5.03,11.13,8.11,4.42,3.89,7.71,8.26,10,13.71,1.4,3.34,2.91,6.41,3.71,10.01l1.07,4.79,1.12,18.59-.28,5.05-.87,7.6-1.72,10.34c-1.16,6.97-3.99,13.33-6.48,19.97l-3.53,7.36c-2.76,5.77-6.03,11.06-9.85,16.2l-16.5,22.2c-6.48,8.71-14.63,15.35-22.96,22.29l-17.56,14.62c-2.04,1.7-2.65,5.23-5.33,6.6-.67.34-2.15-.76-2.38-1.67-.79-3.13-.07-6.26.47-9.38l.24-7.03c.06-1.71.46-3.17.47-5.07l.04-5.73c.02-2.74,0-5.29.13-7.99l.22-4.9-.27-8.55c-.06-2.03.24-3.96.24-6.08v-6.62s.29-6.28.29-6.28c.08-1.8.32-3.42-.04-5.8l-18.37,20.09c-7.97,8.72-16.08,16.9-22.61,26.79-3.53,5.35-5.83,11.21-8.25,17.13-.69,1.69,1.02,3.92,1.68,5.28-.59,2.39-4.36,6.21-5.83,6.34-1.65.15-4.09-2.47-5.27-5.42l-2.03-5.09-1.5-4.73c-1.14-6.17-1.65-12.23-.89-18.35l.85-6.78,2.67-14.51,2.06-9.02,1.21-6.38c.37-1.97.68-3.74,1.03-5.66l2.69-14.82,1.36-7.4.76-6.84c.56-5.03.24-10.05.08-15.16-.21-6.67-4.82-15.98-7.68-16.26l-3.99-.4c-5.32-.53-10.68,2.49-15.3,5.38-12.34,7.71-18.97,21.13-23.86,34.58-.84,2.3-1.03,4.48-1.31,6.87l-.49,4.24c-.94,8.16,1.32,15.41,5.75,22.12,2.16,3.27,5.12,4.43,8.75,5.07,6.68,1.18,13.69-1.3,17.33-7.07,5.54-8.76,3.26-15.57,1.22-13.49l-1.09,1.11c-.8.81-1.34-.38-1.54-.9-.66-1.78,2.46-5.25,3.93-5.58,1.86-.41,3.74.9,4.67,1.91,1.63,1.77,1.42,3.57,1.29,5.79-.41,6.55-3.91,10.65-8.06,15.73-4.38,5.36-12.64,9.31-18.89,8.16l-3.83-.7Z"/>
          <path class="cls-1" d="M289.98,240.85l-3.32-1.26c-1.71-.65-3.28.35-4.83.63-8.39,1.51-16.24,8.24-19.24,15.67l-1.8,9.3-1.59,8.7-4.71,22.48c-1.37,6.54-1.98,12.86-4.69,19.12l4.4-.41c1.19-.11,3.44,1.06,2.9,2.47-.73,1.93-2.63,3.47-4.22,4.82l-14.79.81c-.6-.11-1.64-1.56-1.29-1.98l3.39-4.11c1.93-2.33,1.91-5.6,2.28-8.48l.95-7.46,1.04-6.61,1.04-6.19.99-4.52,1-4.95.94-5.04.8-5.14c1.12-7.2,2.52-14.09,4.45-21.19.29-1.08-.01-2.96-.06-3.91-.07-1.47-1.65-1.17-2.58-.9-2.12.61-4.76.75-6.18,2.78-.89,1.26-1.42,3.73-3.26,4.23-.92,0-2.62-1.53-2.53-2.47.2-2.09,1.74-3.38,3.06-4.65l5.89-5.65c1.79-1.72,3.41-2.34,5.87-2.78,1.94-.34,3.84-1,5.74.26,2.91,1.94,4.76,5.48,4.25,9.06-.18,1.29-.83,2.39-.13,3.99l6.21-5.86c6.85-6.46,21.17-11.53,27.11-6.24,2.12,1.88,3.48,4.89,3.84,7.72.2,1.53-.57,2.9.21,4.68l6-6.91c4.97-5.73,13.81-12.55,21.18-12.03,3.4,1.62,6.05,4.01,8.36,7.07,6.53,8.67,4.04,24.9,1.09,35.8l-5.38,19.83-1.13,7.83c-.47,3.28-.17,6.88,1.87,9.59,1.69,2.25,4.52,2.6,6.86,1.28,5.17-2.91,7.09-7.19,9.31-8.36.68-.36,1.21.8,1.23,1.28.02.68-.39,1.37-.98,2.06-6.3,7.44-13.38,15.68-22.25,8.62-3.06-2.44-4.46-5.22-4.75-9.22-.31-4.33-.41-8.5.59-12.8l2.72-11.69,1.89-12.08c.49-3.12.41-6.08.62-9.14.28-3.93.65-7.57-.63-11.44-1.09-3.29-1.18-7.36-3.78-10.06-1.22-1.27-3.38.23-4.64.54-11.03,2.67-18.24,16.16-19.28,27.31l-.42,4.52-1.33,12.02-2.14,12.49-2.07,9-1.97,8.22c-.46,1.93-6.2,7.92-7.97,8.54-1.37.48-4.35-1.15-4.54-2.55.82-1.13,1.09-2.44,1.33-4.04l1.2-8.07.67-4.01,2-10.28.51-3.98.85-7.21c.3-2.53.11-5.03,1-7.52.77-2.15-.08-7.63,1.01-10.37,1.49-3.76,1.93-7.34,2.54-11.19.54-3.39,1.36-6.61-.74-9.97Z"/>
          <path class="cls-1" d="M458.61,228.95c-8.68.99-13.92,4.07-18.83,11.35-1.88,2.79-3.36,5.3-4,8.76l-1.72,9.34-3.07,16.49-4.07,19.23-1.64,6.86c-.32,1.35-.5,2.47.58,3.57,1.23,1.26.91,2.89-.36,4.01-.95.83-1.81,2.48-3.21,2.15l-2.13-.49c-.6-.14-1.14.84-1.71,1.25-1.29-.08-3.83-1.5-3.64-3.03l1.47-11.81,2.94-19.5,1.05-7.13,3.93-16.01,2.59-11.17c.7-3.02,1.28-6.13-.04-9.2-4.13.71-6.97,3.19-9.58,6.02-.5.54-1.45-.48-1.59-.99-.19-.7.02-1.71.65-2.39,3.12-3.37,6.03-6.63,10-9.08,1.73-.99,4.1-2.35,6.15-1.39,3.76,1.76,4.94,6.13,4.96,10.59l10.5-9.81c4.7-3.36,10.29-5.17,15.99-5.85,2.29-.27,3.83.23,5.74,1.04,3.97,1.67,6.91,4.3,8.22,8.57.85,2.78,2.61,5.7,2.28,8.76l-1.21,11.16-1.85,12.04c-.7,4.57-1.46,8.91-2.75,13.3l-3.3,11.27c-1.02,3.47-1.74,6.79-2.13,10.3-.28,2.55.34,4.64,3.14,5.43.85.24,1.85.76,3.01.47,1.08-.27,2.4.91,1.95,1.74-2.99,5.41-10.6,6.94-14.89,4.09-3.02-2.01-4.6-5.1-4.43-9.04l.27-6.09,1.92-9.01,1.68-8.08,4.47-22.35,1.09-5.25c1.9-4.77,1.35-9.71.4-14.57-.88-4.52-4.47-6.07-8.8-5.57Z"/>
          <path class="cls-1" d="M214.16,244.93c-1.49-1.26,1.94-4.62,4.81-6.3,2.85-1.67,8.81,2.08,11.15,4.96s4.11,6.32,5.37,9.86l1.7,9.49-.19,5.12c-.13,3.4,0,6.54-.67,9.87-1.56,7.77-3.51,15.28-7.42,22.19-2.38,4.19-4.41,8.46-7.72,11.9l-6.29,6.56c-4.29,4.47-13.17,8.28-18.65,6.99-6.51-1.54-11.54-6.86-14.18-12.82l-2.21-6.27c-2.4-6.81-2.07-14.19-1.22-21.39l.85-7.16,1.35-5.08,1.1-4.04c1.42-5.25,3.84-9.82,7.1-14.2l7.63-10.29,5.72-5.84c1.99-2.03,4.51-3.93,7.3-4.18,1.47-.13,3.59,1.34,3.26,2.81-.36,1.63-1.86,3.09-2.99,4.23l-3.16,1.85-3.92,6.18c-2.2,3.47-3.64,7.06-4.68,11l-1,3.8-1.02,3.25-2.22,9.67-.97,6.5-.44,5.17.64,13.15c.14,2.98.74,5.56,2.12,8.34,1.75,3.51,5.92,6.49,10.22,6.06s8.37-2.67,11.26-5.56,4.13-6.43,6.1-9.75c3.74-6.32,5.68-12.96,7.11-20.1.89-4.45,1.02-8.76.28-13.34l-.72-4.44c-.76-4.68-2.02-8.68-4.46-12.63-4.49-7.27-9.79-4.6-10.93-5.56Z"/>
          <path class="cls-1" d="M400.76,292.04l4.1-6.22c1.55-2.35,2.43-4.82,4.92-6.54.86.54,1.67,1.44,1.92,2.75-4.98,10.26-11.74,19.42-20.58,26.65-2.64,2.16-5.35,3.71-8.61,4.49-3.21,2.07-7.3,2.07-10.34-.22-5.91-1.71-10.9-5.78-13.76-11.14-1.43-2.67-2.71-4.98-3.04-8l-.91-8.48-.21-3.98c-.19-3.67,0-7.05.78-10.63l2.36-10.88c1.15-5.32,4.27-9.83,7.01-14.55,2.02-3.49,5-6.04,7.9-8.83,2.66-2.55,4.74-5.74,8.1-7.33l8.84-4.19c2.99-1.41,6.94-1.55,9.75.26l6.13,3.96c2.23,1.44,3.63,4.55,4.28,7.12s.08,5.18-.31,7.69c-.66,4.27-3.71,7.27-6.69,10.14s-6.12,4.2-9.94,5.48l-5.87,1.96c-6.01.65-12.54,3.14-18.01,6.33-1.34,5.06-2.2,10.07-2.45,15.28l-.33,6.75c.49,3.8,1.87,7.82,4.29,10.74,1.64,1.98,4.6,2.2,6.71,3.37s4.62,1.65,7,.53l8.35-3.97c3.38-2.17,6.35-5.06,8.63-8.52ZM381.58,257.47l6.22-1.56c4.23-1.06,8.56-2.03,12.23-4.72,3.64-2.67,4.05-8.45,1.7-13.08-.81-1.59-3.36-3.11-5.24-3.08-3.34.05-6.58,0-9.77.71l-7.78,3.22c-4.57,1.89-8.1,15.69-9.54,22.53l6.7-2.39,5.47-1.63Z"/>
        </g>
        <g>
          <path class="cls-1" d="M289.8,172.29c-1.51-1.82,2.69-6.37,4.41-6.82,2.03-.53,3.36,0,4.66,1.24,5.43,5.18,6.59,12.17,4.32,19.33-2.04,6.41-4.57,12.08-8.74,17.13-2.53,3.07-4.87,5.94-8.08,8.39-8.56,6.53-18.02,11.23-28.14,14.38-2.77.86-5.16,1.84-7.97,2.33l-7.55,1.31c-10.76,1.87-21.23,1.04-32-.62-21.69-3.35-45.23-15.18-63.47-28.7l-10.26-7.6-13.27-8.04c-5.37-3.25-10.49-5.85-16.5-7.24l-6.42-1.49c-3.55-.82-7.58.65-10.34,3.21-4.09,3.78-11.05,4.37-13.18.08l2.4-3.66,4.95-1.93,6.05-3.49c7.56-4.36,11.58-22.67,13.76-32.96.68-3.2.9-6.19,1.05-9.56l.28-6.15,1.53-13.4c.62-5.48,1.49-10.54,2.46-16.05,2-11.3,3.1-22.75,6.74-33.7l2.91-10.45c1.9-6.84,9.18-21.59,13.34-27.71l6.58-8.32c3.18-4.02,7.03-7.31,11.41-9.66,4.92-2.64,10.34-2.19,15.77-1.97,3.87.16,7.96.65,10.73,3.99,1.03,1.24-.08,2.62-.7,3.31-1.16,1.3-2.23.62-3.53.09-3.15-1.28-6.34-.3-9.57-.33-7.48-.08-14.31,2.72-19.4,8.68-.73.85-1.83,1.37-2.38,2.52-3.68,7.75-6.4,15.81-8.35,24.33-.47,2.05-1.71,4.08-1.69,6.23.03,2.71-.56,4.85-1.02,7.4l-3.1,17.42c-.57,3.19-.99,6.12-1.84,9.38-.42,1.62-.4,3.68-.73,5.41l-2.21,11.52c-1.86,9.7-2.66,19.43-5.31,28.89-.4,1.44-.83,2.62-1.26,4.14l-1.84,6.56c-.91,4.01-2.61,7.51-3.91,11.35-1.96,5.78-4.56,10.76-8.85,15.7l16.48,4.16c5.19,1.31,9.82,4.14,14.57,6.84,4.08,1.61,7.62,3.91,11.38,6.19l13.95,8.45c9.82,5.95,20.03,10.23,30.51,14.68,7.49,3.18,14.9,5.49,22.7,7.65,8.01,2.22,16.03,3.11,24.32,3.8l19.66-.91,2.98-1.04c9.75-.94,23.18-7.49,31.26-14.17,3.51-2.9,5.32-7.37,6.73-11.92l1.14-3.68c2.02-4.24,1.31-10.14-2.95-12.46-1.39-.76-3.35-.72-4.48-2.06Z"/>
          <path class="cls-1" d="M311.13,148.91c5.59,1.2,5.3,1.93,10.89-1.19.68-.38,1.16-.91,1.82-.65.49.19,1.14,1.31.66,2.03-3.02,4.57-10.62,12.77-13.82,10.27l-6.23-4.87c-1.62-1.27-3.92-2.07-4.77-4.22-.74-1.9-.18-4.04-.02-6l.45-5.67c.78-2.8.74-5.5,1.03-8.28l.88-8.32c.3-2.81.34-5.37.76-8.07l1.02-6.57c.25-1.59.59-2.87.81-4.46l1.03-7.14,1.26-4.75c.46-5.2,1.49-10.01,2.33-15.14l1.03-6.29,2.52-9.67c.36-1.36.44-2.34.76-3.69l4.03-16.89c1.13-4.75,3.44-9.37,6.39-13.31,3.36-4.48,7.7-7.81,11.68-11.89,5.14-.39,9.53,2.91,11.09,7.73-1.57,3.13-3.71,6.16-5.7,4.7s-5.81-3.45-8.25-2.03c-2.77,3.51-3.86,8.19-4.31,12.54l-.88,8.43c-.45,4.36-1.11,11.03-2.01,14.16-1.04,3.62-.76,7.33-1.76,12.17l-.86,4.19-.75,7.21-1.27,7.7-.74,5.97-.96,4.59-2.26,13.25c-.44,2.6-1.25,4.94-1.37,7.68-.05,1.06-.35,2.64-.6,3.83l-2.38,11.63c-.71,3.48-1.55,7.58-1.49,11.01Z"/>
          <path class="cls-1" d="M361.56,143.49c7.3-2.68,12.88-7.47,16.72-13.98.87-1.47,2.14-2.56,2.76-4.28.93-2.59,2.62-4.7,4.86-6.27l1.88,2.88-6.25,10.57c-4.46,6.44-9.45,12.22-15.67,16.95-2.12,1.61-4.39,2.91-6.95,3.33-3.51,2.54-7.36,1.94-10.89.27-4-1.9-7.89-3.58-10.76-7.18-6.51-8.17-5.66-12.21-6.84-20.56-1.03-7.24.44-14.09,1.82-21.2,1.32-6.77,4.2-12.65,7.76-18.54,2.31-3.83,5.49-6.66,8.75-9.74,2.43-2.3,4.3-5.2,7.33-6.75l6.3-3.22c3.42-1.75,7.49-2.68,11.21-1.42,2.51.85,4.5,2.65,6.71,4.14,2.7,1.81,4.71,4.95,5.04,8.21.91,8.99-2.04,12.08-7.41,17.52-2.58,2.61-5.62,3.85-9.09,4.94l-7.45,2.33-6.3,1.43c-3.48,1.52-7.35,2.39-10.34,4.68-1.81,4.56-2.1,9.87-2.58,14.59-.42,4.11-.97,9.25.87,12.75.98,1.87,1.38,5.17,3.44,6.05l8.87,3.79c2.08.89,4.23-.52,6.21-1.25ZM356.61,97.48l7.24-1.84c4.17-1.06,8.62-2.07,12.09-4.74s3.71-6.93,2.65-10.81c-.73-2.65-2.53-4.98-5.81-5.23s-7.04.03-10.39.69l-4.99,1.83c-2.39.87-4.17,2.21-5.38,4.2-1.79,2.93-3.06,5.77-3.88,9.07-.88,3.52-2.37,6.59-2.58,10.73,3.78-1.87,7.24-2.92,11.06-3.9Z"/>
          <path class="cls-1" d="M227.83,152.72c3.77,2.93,10.7.65,13.54-2.53l5.84-6.55c.75-.84,1.69-1.64,2.77-2.1.76-.32,2.28,1.24,1.87,1.98-1.63,3.02-4.14,5.21-6.23,7.84-2.72,3.42-5.92,5.89-9.59,8.23-1.9,1.21-3.59,2.34-6.22,2.39l-6.36.12c-6.19-1.69-9.77-7.82-10.14-13.94-.2-3.31.07-6.12.17-9.36l.12-4.04,5.38-35.68.87-9,2.06-11.13c1-5.39,3.69-17.34,6.2-19.96l5.65-5.9c1.23-1.28,2.74.16,3.49.98,1.57,1.72,1.74,2.94,1.44,5.2l-.47,3.57c-.43,3.28-.57,6.43-1.66,9.74,5.59.97,11.83-2.55,13.3-1.69.48.28,1.41,1.11,1.04,1.95-.55,1.25-1.93,3.32-3.21,3.79-4.91,1.81-10.45,1.02-12.06,1.93-.67.38-.53,1.23-.68,1.94l-2.08,9.52c-2.97,13.58-6.14,26.82-7.47,40.67l-.78,8.17c-.24,2.47-.2,4.2.61,6.62.75,2.24.38,5.5,2.6,7.22Z"/>
          <path class="cls-1" d="M270.81,149.84c4.22,2.89,10.46,1.02,13.55-2.35l7.15-7.81c.67-.74,1.71-1.17,2.37-.78.53.32,1.49,1.58.87,2.39-3.6,4.65-7.27,9.37-11.95,13.05l-5.69,3.75c-2.16,1.43-5.04.95-7.39,1.23-2.92.34-5.08-.18-7.26-2.05-2.52-2.17-4.75-4.73-5.42-8.3-.62-3.32-.83-7.02-.65-10.49l.27-5.13,5.44-37.1,1.45-12.27c.19-1.61.86-2.9.96-4.69.06-.99.26-2.49.52-3.54l2.81-11.22c.73-2.92,1.43-6.24,3.45-8.49,1.98-2.21,4.23-3.9,6.26-6.41,1.87.45,4.37,2.38,4.18,4.54l-.83,9.08c-.2,2.25-.4,4.28-1.39,6.59,3.53.42,9.78-.74,11.22-1.72,1.01-.68,3.53.13,3.32,1.48-.25,1.61-1.95,3.79-3.44,4.3-3.88,1.32-7.68,1.22-11.69,1.62-1.13,1.69-1.19,3.72-1.59,5.56l-1.28,5.97-2.31,9.97c-2.11,9.13-3.73,18.09-4.8,27.34l-.76,6.59c-.41,3.56-.96,8.01-.12,10.83.73,2.46.67,5.96,2.75,8.03Z"/>
          <path class="cls-1" d="M195.97,163.64c-8.28,3.05-19.28-4.31-21.43-13.12-1.24-5.09-.71-11.59.39-16.86l2.17-10.44,2.1-8.58c.39-1.61.31-3.01.69-4.56l2.16-8.93c.61-2.51,1.71-5.09.56-7.83l-7.06,3.11c-.78.34-1.81.4-2.47.24-.62-.15-1.86-1.31-1.36-2.02.9-1.3,2.25-3.14,3.73-4l12.84-7.44c.92-.53,1.76-.8,2.81-.79.76,0,1.35.92,2,1.5,6.07,5.49,1.94,11.96,1.08,17.71-.92,6.09-2.45,11.66-4.43,17.4l-1.5,6.38c-1.73,7.36-3.86,14.77-1.93,22.76,1.23,5.1,7.36,8.49,12.36,7.43,4.51-.96,6.97-7.65,8.57-7.26,2.5.61.41,4.37-2.28,7.39s-5.03,6.45-8.99,7.91Z"/>
          <path class="cls-1" d="M198.25,67.94c-2.88,2.22-7.98.59-9.57-2.31-1.4-2.56-.84-5.63.95-7.71l6.6-7.69c1.68-1.96,5.08-1.53,7.78,1.5,2.15,2.41,3.46,5.97,1.07,8.71-2.14,2.45-4.02,5.33-6.83,7.5Z"/>
        </g>
      </g>
      <g>
        <path class="cls-1" d="M125.63,374.68l.04.53c-.34,1.21-.58,1.36-1.86,1.52-1.54.2-3.07.49-4.61.73-.54.09-1.08.17-1.63.24-.79.11-1.41.48-1.83,1.16-.16.27-.31.55-.42.84-1.5,3.95-3.03,7.89-4.47,11.87-.66,1.83-1.11,3.73-1.69,5.58-.5,1.57-1.05,3.12-1.58,4.67-.4,1.17-1,1.43-2.28,1.44-.53,0-.82-.35-.78-.88.02-.3.1-.6.19-.88,2.47-7.17,4.96-14.33,7.42-21.5.22-.63.29-1.32.44-2.03-.81.03-1.52.08-2.23.07-1.24-.01-2.48-.04-3.72-.09-.62-.03-1.09-.39-1.45-.87-.38-.5-.27-1.06.28-1.37.24-.14.51-.23.78-.28,3.96-.76,7.98-.93,11.99-1.21,2.03-.14,4.07-.27,6.1-.36.31-.01.66.11.94.26.18.1.25.37.37.57Z"/>
        <path class="cls-1" d="M161.7,371.81l.06.67c-.98,2.62-1.93,5.24-2.95,7.84-1.91,4.84-3.88,9.67-5.8,14.51-.39.99-.65,2.02-1,3.02-.15.44-.34.89-.6,1.26-.46.64-1.17.8-1.88.49-.71-.31-1.05-.89-.9-1.65.09-.46.25-.9.4-1.35,1.02-2.95,2.05-5.89,3.08-8.83.19-.54.4-1.06.62-1.62-.56-.21-1.08-.44-1.71-.39-2.99.22-5.99.43-8.98.61-1.12.07-1.86.6-2.3,1.61-1.64,3.74-3.28,7.47-4.92,11.21-.13.3-.24.6-.36.9-.18.47-.44.87-.92,1.1l-.67.06c-.92-.31-1.18-.67-1-1.65.12-.7.34-1.39.6-2.05,1.62-4.02,3.28-8.03,4.9-12.06.78-1.93,1.52-3.87,2.21-5.83.31-.88.47-1.82.63-2.74.19-1.08.61-2.06,1.31-2.9.46-.55.95-1.08,1.45-1.58.41-.41.95-.56,1.51-.51.21.02.47.19.58.37.34.54.45,1.15.21,1.77-.81,2.12-1.64,4.23-2.43,6.36-.31.83-.53,1.7-.84,2.67,1.24-.05,2.39-.09,3.54-.16,1.83-.12,3.67-.25,5.49-.42.61-.06,1.23-.17,1.8-.37,1.16-.4,1.92-1.25,2.37-2.37.77-1.95,1.5-3.93,2.3-5.87.33-.8.73-1.59,1.18-2.33.75-1.23,2.3-1.13,2.95.16.01.03.04.05.06.07Z"/>
        <path class="cls-1" d="M187.77,369.37l.06.74c-.17.83-.75,1.2-1.52,1.28-1.87.17-3.74.32-5.62.44-1.39.09-1.95.51-2.42,1.81-.76,2.09-1.55,4.17-2.33,6.25-.04.11-.08.23-.14.39.31,0,.6,0,.88,0,1.04-.06,2.08-.11,3.11-.19.45-.04.84.08,1.19.34.68.5.62,1.51-.16,1.86-1.17.53-2.37.98-3.69,1.04-.45.02-.91.11-1.35.23-1.04.29-1.75.98-2.15,1.97-.98,2.4-1.95,4.8-2.89,7.22-.2.53-.23,1.13-.36,1.77.69.03,1.33.12,1.96.09,1.82-.11,3.64-.29,5.46-.38.41-.02.84.18,1.24.33.26.1.37.35.35.64-.05.74-.33,1.38-1.05,1.66-.51.2-1.07.33-1.62.4-1.96.26-3.93.49-5.9.73-.14.02-.28.06-.42.09l-2.14.18c-.2-.04-.39-.06-.59-.11-.82-.19-1.25-.77-1.14-1.6.05-.39.16-.79.29-1.17,2.94-7.98,5.89-15.96,8.84-23.93.11-.31.23-.61.39-.89.47-.89,1.22-1.38,2.22-1.46,2.6-.2,5.2-.39,7.8-.59.03,0,.07,0,.1,0,.71-.03,1.31.14,1.6.88Z"/>
        <path class="cls-1" d="M239.07,365.67c.11.66-.03,1.29-.21,1.92-.91,3.06-1.89,6.08-3.03,9.06-.96,2.52-1.63,5.16-2.41,7.75-.65,2.16-1.26,4.34-1.89,6.5-.08.26-.16.51-.26.76-.16.38-.4.67-.87.66-.46,0-.67-.32-.82-.68-.3-.74-.33-1.5-.13-2.27.98-3.71,1.97-7.41,2.95-11.12.12-.47.16-.97.23-1.45-.05-.02-.09-.05-.14-.07-.46.65-.99,1.27-1.37,1.97-1.77,3.24-3.49,6.51-5.27,9.74-.56,1.01-1.24,1.94-1.89,2.89-.13.19-.32.37-.53.45-.87.35-1.16.12-1.4-.57-.26-.75-.18-1.53-.2-2.3-.07-3.55-.13-7.1-.19-10.64,0-.06-.01-.13-.02-.19-.03-.01-.06-.02-.09-.04-.22.49-.52.96-.66,1.47-.86,3.15-1.65,6.32-2.52,9.46-.41,1.47-.96,2.91-1.46,4.36-.07.22-.19.43-.33.62-.27.38-.73.48-1.08.18-.23-.2-.45-.49-.52-.78-.13-.58-.09-1.17.06-1.76,1.83-6.78,3.65-13.56,5.46-20.34.41-1.53.8-3.07,1.21-4.61.06-.23.13-.45.24-.66.34-.66,1.14-.76,1.59-.17.2.26.36.62.38.94.07.87.08,1.74.06,2.62-.03,2.57-.1,5.15-.14,7.72-.04,2.83-.05,5.66-.08,8.5,0,.26.04.44.37.45.08-.13.15-.28.23-.42,3.82-6.73,7.64-13.45,11.46-20.17.15-.27.34-.53.56-.75.45-.46,1-.7,1.64-.46.65.24.95.78,1.05,1.44Z"/>
        <path class="cls-1" d="M270.17,362.56l.06.74c-.15.54-.24,1.11-.46,1.63-2.27,5.33-4.54,10.65-6.85,15.96-1,2.3-2.08,4.58-3.41,6.73-.66,1.07-1.52,1.93-2.66,2.43-.9.39-1.84.68-2.78.96-.67.2-1.37.3-2.06.45l-.54.04c-.37-.1-.74-.21-1.12-.31-.69-.19-1.39-.34-2.06-.59-2.64-.95-3.85-3.04-3.26-5.78.28-1.32.73-2.6,1.2-3.87,2.03-5.51,4.1-11,6.14-16.5.31-.83.97-1.17,1.75-1.33.19-.04.48.09.61.24.37.4.51.88.42,1.45-.45,2.9-1.45,5.62-2.64,8.28-1.13,2.51-2.28,5.01-3.05,7.66-.4,1.38-.76,2.78-1.09,4.18-.1.44-.13.92-.07,1.36.2,1.28,1.19,2.04,2.61,2.08,2.57.08,4.61-.97,6.04-3.06,1.8-2.64,3.39-5.42,4.28-8.51.62-2.14,1.56-4.14,2.4-6.18.92-2.22,1.82-4.45,2.73-6.68.31-.76.75-1.45,1.36-2.02.45-.42,1.35-.57,1.84-.23.27.19.4.57.59.86Z"/>
        <path class="cls-1" d="M297.05,364.91l.06.74c-.32,1.15-1.29,1.58-2.25,2.09-.3-.65-.6-1.28-.86-1.91-1.03-2.46-3.16-3.18-5.54-2.52-1.44.4-2.37,1.63-2.54,3.24-.09.9.09,1.74.46,2.54.7,1.48,1.4,2.95,2.12,4.41,1,2.05,1.8,4.15,1.91,6.45.1,2.14-.26,4.21-1.37,6.07-.96,1.6-2.42,2.57-4.22,3.05-.06.02-.12.05-.18.08l-1.27.11c-1.55-.1-2.94-.69-4.3-1.39-1.54-.8-2.53-2.02-2.97-3.7-.15-.57-.05-.96.35-1.27.48-.37.99-.45,1.46-.13.33.22.6.53.89.8.76.7,1.48,1.42,2.28,2.07.55.45,1.22.69,1.94.76.84.08,1.59-.18,2.2-.73,1.77-1.6,2.69-3.57,2.46-6-.08-.9-.42-1.74-.8-2.55-1-2.12-1.94-4.27-3.05-6.34-1.11-2.08-1.3-4.17-.62-6.38.15-.47.33-.92.49-1.39.23-.72.7-1.25,1.33-1.62,1.72-1,3.54-1.66,5.56-1.61,1.76.04,3.23.75,4.43,2.01.88.91,1.55,1.95,2.02,3.14Z"/>
        <path class="cls-1" d="M315.8,358.42l.07.8c-.67,3.04-1.81,5.93-3.23,8.68-1.96,3.8-3.69,7.7-5.3,11.66-.84,2.07-1.71,4.14-2.54,6.21-.26.66-.8.88-1.41.99-.98.17-1.75-.77-1.39-1.7.86-2.2,1.73-4.39,2.65-6.56,2.61-6.1,5.24-12.18,7.88-18.27.2-.47.43-.94.7-1.37.44-.69,1.06-1.1,1.91-1.14.27-.01.42.04.49.31.04.14.11.26.16.4Z"/>
        <path class="cls-1" d="M341.86,360.03l.09,1.14c-.05.27-.08.55-.14.82-.2.97-.66,1.8-1.35,2.51-.45.46-.99.72-1.66.65-.26-.03-.44-.16-.54-.4-.16-.4-.21-.81-.02-1.2.15-.32.37-.62.51-.94.19-.44.41-.88.49-1.34.2-1.03-.35-1.84-1.38-2.08-1.09-.25-2.14-.06-3.11.48-.29.16-.57.35-.82.57-4.64,4.12-7.9,9.12-9.56,15.13-.47,1.69-.21,3.3.38,4.89.22.61.4,1.23.96,1.65.35.27.72.41,1.17.41.99,0,1.97,0,2.92-.31.7-.23,1.29-.61,1.78-1.15.14-.15.27-.3.4-.45.69-.84,1.58-1.33,2.68-1.59-.01.36,0,.71-.05,1.05-.08.54-.16,1.09-.33,1.6-.39,1.21-1.24,2-2.41,2.45-1.1.42-2.22.82-3.32,1.23l-1.21.1s-.08-.03-.13-.04c-2.45-.21-4.17-1.52-5.29-3.62-.96-1.81-1.1-3.76-.79-5.75.43-2.82,1.38-5.48,2.58-8.05,1.36-2.91,3.24-5.49,5.2-8.01.78-1.01,1.76-1.8,2.86-2.46,1.71-1.02,3.52-1.61,5.54-1.28,2.03.33,3.53,1.34,4.29,3.31.09.23.15.47.23.7Z"/>
        <path class="cls-1" d="M369.32,356.24c-.73,6.21-1.44,12.42-2.21,18.62-.2,1.62-.57,3.21-.87,4.82-.12.62-.45,1.08-1.02,1.37-.75.39-1.6-.03-1.64-.88-.05-.94-.06-1.88.01-2.82.06-.86.25-1.7.38-2.55.02-.11.03-.22.05-.34-1.03-.33-2.07-.48-3.12-.36-1.31.15-2.61.43-3.92.59-.85.11-1.46.56-1.94,1.2-1.11,1.47-2.2,2.97-3.3,4.45-.42.57-.81,1.16-1.25,1.7-.28.35-.65.63-.98.94l-.6.05c-.41-.13-.87-.16-1.13-.58l-.08-.94c.11-.25.19-.52.35-.74,3.68-5.31,7.38-10.61,11.06-15.91,2.46-3.54,4.89-7.1,7.35-10.64.19-.27.43-.52.7-.71.75-.51,1.58-.24,1.92.61.27.68.32,1.4.23,2.12ZM365.57,361.7c-.06,0-.08,0-.1.02-.05.04-.1.08-.15.13-2.45,2.39-4.46,5.1-5.97,8.16-.2.41-.33.85-.49,1.27.02.04.05.07.07.11,1.15-.18,2.31-.29,3.44-.55,1.24-.29,2.11-1.05,2.3-2.4.24-1.67.47-3.34.7-5.01.08-.57.14-1.15.21-1.73Z"/>
        <path class="cls-1" d="M390.73,378.68l.02.27c-.36.57-.83.96-1.52,1.07-.38.06-.76.15-1.14.23l-2.81.23c-.14,0-.29-.03-.43-.02-1.53.06-3.06.14-4.59.17-1.17.02-2.32-.16-3.43-.53-1.4-.46-1.8-1.39-1.13-2.72,2.7-5.42,4.94-11.04,6.93-16.76.89-2.55,1.76-5.12,2.85-7.59.07-.16.14-.33.23-.49.38-.7.87-.93,1.54-.71.76.24,1.17.82,1.07,1.57-.03.22-.09.44-.15.65-1.66,5.5-3.86,10.8-6.08,16.09-.99,2.36-1.91,4.75-2.65,7.2-.03.09-.05.19-.09.34.28,0,.53,0,.78-.01,2.46-.09,4.92-.18,7.38-.28.37-.01.75-.02,1.1-.1.7-.16,1.21.09,1.61.62.19.24.34.52.5.78Z"/>
      </g>
    </g>
  </g>
</svg>