<?xml version="1.0" encoding="UTF-8"?>
<svg id="Layer_2" data-name="Layer 2" xmlns="http://www.w3.org/2000/svg" width="356.988" height="357.54" viewBox="0 0 356.988 357.54">
  <g id="Layer_1-2" data-name="Layer 1">
    <g>
      <g>
        <path d="m81.065,60.234l-.877-5.955c-2.204-15.549-10.742-14.934-11.744-15.527l22.177-14.96c.175,1.151-3.638,8.868,9.953,16.736l5.193,3.044c13.591,7.868,20.934,8.058,21.661,8.837l-16.025,10.809c-.143-.905,2.119-5.772-3.902-11.331-7.341,3.082-13.769,7.418-19.361,12.993,2.853,7.696,8.289,7.436,9.075,7.908l-16.07,10.84c-.451-.966,2.123-7.846-.081-23.395Zm22.781-11.092c-.894-.533-1.865-1.081-2.912-1.643l-16.005-8.177,1.588,17.902c.129,1.182.274,2.287.402,3.27,5.028-4.728,10.629-8.507,16.927-11.352Z" fill="#083157"/>
        <path d="m127.479,50.522l-4.7-14.82c4.357,3.909,9.745,8.083,22.024,5.133,9.101-2.186,14.851-8.125,13.985-11.733-2.613-10.878-33.978,15.055-38.623-4.279-2.07-8.616,5.479-17.265,17.65-20.189,6.247-1.501,13.959-1.644,18.072-.411l3.157,13.14c-3.71-2.64-10.455-5.349-18.964-3.305-9.37,2.251-15.662,7.123-14.549,11.755,2.471,10.286,33.913-15.324,38.506,3.794,2.147,8.94-5.121,17.806-16.969,20.652-8.778,2.109-16.529,2.091-19.588.263Z" fill="#083157"/>
        <path d="m177.906,23.205l.09-1.104c1.275-15.622-5.008-21.025-5.254-22.1l25.227,2.058c9.439.77,16.047,7.644,15.362,16.035-.712,8.722-7.696,15.32-16.529,14.6-9.826-.802-13.187-5.91-13.857-9.966l-.072.883c-1.274,15.622,8.376,21.3,8.787,22.389l-22.522-1.838c.417-1.022,7.493-5.335,8.767-20.957Zm18.769,1.531c7.783.635,12.347-1.493,12.707-5.909.361-4.416-3.963-7.269-12.133-7.936l-13.248-1.081-.585,7.176c-.307,5.81,5.421,7.111,13.26,7.75Z" fill="#083157"/>
        <path d="m225.483,31.03l.353-1.05c5.002-14.854-1.053-22.035-1.085-23.156l20.68,6.964c-.703.874-9.869,2.93-14.871,17.783l-.354,1.05c-5.002,14.854,1.053,22.035,1.085,23.156l-20.68-6.964c.703-.873,9.869-2.929,14.872-17.783Z" fill="#083157"/>
        <path d="m250.465,40.711l.606-.927c8.574-13.121,5.63-20.867,5.928-21.93l22.579,14.755c7.836,5.12,9.79,13.874,5.215,20.875-4.757,7.279-11.743,9.263-21.433,2.931-6.815-4.454-8.136-9.419-8.345-12.136-1.163,3.805-1.241,15.465,8.078,21.555,5.239,3.424,10.375.627,14.759-2.133l-9.484,14.512c-16.181-10.574-17.921-26.135-14.366-33.802-7.642,12.605-2.166,21.741-2.325,22.895l-18.917-12.362c.854-.699,9.13-1.113,17.705-14.234Zm16.893,9.584c8.299,5.423,10.929,4.032,12.959.926,1.818-2.782,1.182-6.77-5.587-11.193l-12.518-8.181-2.848,4.358c-2.909,4.451-.212,8.728,7.994,14.09Z" fill="#083157"/>
        <path d="m291.065,71.455l.87-.685c12.315-9.696,11.998-17.977,12.619-18.889l22.853,29.024-9.535,11.526c-.598-.939.805-10.079-8.892-22.394l-3.084-3.916-9.747,7.675.239.305c6.784,8.616,13.129,7.99,13.792,8.384l-12.01,9.457c-.228-.737,1.869-6.758-4.916-15.374l-.239-.304-9.747,7.675,4.454,5.657c9.696,12.315,18.911,13.095,19.683,13.897l-13.441,6.565-24.224-30.764c1.033-.39,9.008,1.86,21.322-7.836Z" fill="#083157"/>
        <path d="m326.759,132.578l1.083-.233c15.324-3.297,18.679-10.875,19.639-11.421l5.325,24.746c1.993,9.259-2.677,17.573-10.908,19.344-8.555,1.841-16.892-2.937-18.757-11.601-2.074-9.639,1.845-14.334,5.534-16.148l-.867.186c-15.324,3.298-17.969,14.178-18.892,14.887l-4.754-22.093c1.098.103,7.274,5.63,22.598,2.333Zm3.962,18.411c1.643,7.635,5,11.388,9.332,10.456,4.332-.932,5.813-5.897,4.089-13.911l-2.796-12.996-7.039,1.515c-5.651,1.386-5.24,7.246-3.585,14.936Z" fill="#083157"/>
        <path d="m333.684,179.854l1.102.113c15.592,1.595,21.122-4.575,22.203-4.798l-3.76,36.748-14.866,1.652c.223-1.091,7.587-6.683,9.182-22.275l.507-4.958-12.341-1.263-.039.386c-1.116,10.909,3.878,14.871,4.081,15.616l-15.206-1.556c.349-.688,6.042-3.557,7.158-14.466l.039-.386-12.341-1.263-.732,7.162c-1.596,15.591,4.483,22.56,4.481,23.673l-14.223-4.629,3.985-38.951c1.013.438,5.179,7.6,20.77,9.195Z" fill="#083157"/>
        <path d="m325.22,229.146l1.007.462c14.246,6.539,21.471,2.481,22.566,2.618l-11.252,24.515c-3.905,8.507-12.274,11.735-19.875,8.246-7.903-3.628-10.899-10.244-6.07-20.764,3.397-7.4,8.112-9.44,10.768-10.049-3.936-.587-15.479,1.061-20.124,11.179-2.611,5.688.915,10.354,4.293,14.281l-15.756-7.232c8.064-17.568,23.197-21.592,31.306-19.21-13.598-5.693-21.823,1.075-22.987,1.088l9.427-20.538c.818.741,2.452,8.865,16.697,15.404Zm-6.979,18.127c-4.136,9.01-2.371,11.405,1.002,12.953,3.02,1.386,6.87.167,10.244-7.182l6.238-13.591-4.731-2.172c-4.833-2.218-8.663,1.082-12.753,9.992Z" fill="#083157"/>
        <path d="m300.758,273.721l.811.754c11.482,10.668,19.614,9.076,20.612,9.549l-26.652,28.686-6.811-4.06-6.052-3.657c.797-.696,10.045-.722,20.713-12.205l4.901-5.275-11.482-10.668c-9.398,10.848-7.983,18.438-8.419,19.394l-13.227-12.289c.922-.504,8.595.35,18.724-9.819-9.115-8.091-18.586-3.51-19.535-3.71l15.381-16.554c.544.96-.447,9.186,11.036,19.855Z" fill="#083157"/>
        <path d="m273.059,303.287c6.486,11.793,2.803,25.323-8.553,31.569-11.356,6.246-24.756,2.111-31.242-9.682-6.486-11.793-2.803-25.323,8.553-31.569,11.356-6.246,24.756-2.111,31.242,9.682Zm-26.036-.218c-9.997,5.499-13.502,12.23-9.391,19.704,4.111,7.474,11.672,8.119,21.669,2.62,9.997-5.499,13.502-12.23,9.39-19.704-4.111-7.474-11.672-8.119-21.669-2.62Z" fill="#083157"/>
        <path d="m219.396,328.072l.186,1.092c2.641,15.449,10.068,19.124,10.573,20.105l-26.585,4.545c-9.226,1.577-16.613-3.509-18.022-11.752-1.466-8.571,2.306-14.778,13.715-16.728,8.024-1.372,12.37,1.369,14.372,3.218-1.735-3.58-9.611-12.179-20.583-10.303-6.169,1.054-8.03,6.598-9.366,11.602l-2.921-17.087c19.052-3.257,30.913,6.964,33.523,15.002-2.974-14.437-13.202-17.408-13.87-18.361l22.273-3.808c-.15,1.093-5.935,7.026-3.294,22.475Zm-18.901,4.467c-9.772,1.67-10.752,4.479-10.127,8.136.56,3.275,3.739,5.766,11.709,4.403l14.739-2.52-.877-5.131c-.896-5.241-5.782-6.541-15.444-4.889Z" fill="#083157"/>
        <path d="m168.048,333.882l-.222,1.085c-3.139,15.357,2.451,21.475,2.565,22.573l-20.241-4.138c.699-.931,7.78-3.215,1.008-17.376l-3.725-7.772-6.477,5.686c-11.787,10.367-6.224,15.235-5.946,16.366l-19.645-4.016c.537-.965,8.079-4.398,11.219-19.755l.222-1.085c3.14-15.357-2.45-21.475-2.565-22.573l22.087,4.515c-.699.931-11.498,3.699-14.637,19.056l-2.497,12.21,2.967-2.899c11.17-10.945,8.637-15.421,8.522-16.519l17.04,3.484c-.536.965-4.677,4.075,1.105,18.656l1.731,4.255,2.607-12.753c3.139-15.357-5.761-22.152-6.038-23.283l22.14,4.526c-.536.965-8.078,4.398-11.218,19.755Z" fill="#083157"/>
        <path d="m106.783,315.192l-.531.972c-7.508,13.76-2.793,21.885-2.956,22.995l-19.156-10.453c.844-.738,10.229-1.17,17.737-14.929l.531-.972c7.508-13.76,2.793-21.885,2.956-22.995l19.156,10.453c-.844.738-10.229,1.17-17.737,14.929Z" fill="#083157"/>
        <path d="m83.732,301.363l-.764.803c-10.798,11.36-9.298,19.509-9.782,20.501l-12.685-12.057c.966-.534,5.81-1.049,7.727-16.571l2.243-18.116-7.173,7.547c-10.798,11.361-6.89,21.799-7.253,22.905l-16.338-15.529c.966-.534,9.181.551,19.979-10.81l.764-.803c10.798-11.361,9.298-19.51,9.782-20.501l12.685,12.057c-.966.534-5.81,1.049-7.727,16.571l-2.243,18.116,7.173-7.547c10.798-11.361,6.849-21.837,7.213-22.943l16.378,15.567c-.966.534-9.181-.55-19.979,10.81Z" fill="#083157"/>
        <path d="m48.714,221.848s6.547,4.149,11.618,14.246c7.408,14.749,2.179,26.796-9.848,32.837s-25.111,2.448-32.221-11.707c-2.361-4.702-5.349-13.241-5.257-16.635l13.858-6.96c-1.75,4.907-2.949,12.637,1.053,20.606,5.394,10.74,14.192,13.325,20.23,10.292,6.236-3.132,9.987-10.594,3.996-22.522-3.853-7.671-11.023-14.049-16.245-11.983l.97,1.93c5.519,11.235,10.303,13.233,10.775,13.925l-10.443,5.245c-.274-.916,1.325-6.616-5.063-19.211l-.696-1.386,17.273-8.676Z" fill="#083157"/>
        <path d="m23.092,199.067C9.635,198.849-.252,186.834.005,170.995c.086-5.261,1.349-11.445,3.004-14.41l14.399.234c-3.825,3.539-7.315,10.407-7.451,18.769-.17,10.467,5.518,18.37,13.216,18.495s13.64-7.589,13.81-18.057c.125-7.753-3.639-14.739-7.946-19.019l15.507.252c1.558,3.017,2.62,9.238,2.535,14.5-.257,15.839-10.529,27.527-23.987,27.309Z" fill="#083157"/>
        <path d="m25.162,145.811c-12.623-4.666-18.698-17.304-14.204-29.46,4.494-12.155,17.328-17.803,29.951-13.137,12.623,4.667,18.698,17.304,14.204,29.46-4.494,12.156-17.328,17.803-29.951,13.137Zm19.821-16.881c3.956-10.701,2.197-18.083-5.803-21.04-8-2.957-14.137,1.505-18.093,12.206-3.956,10.701-2.197,18.083,5.802,21.04,8,2.958,14.137-1.505,18.093-12.206Z" fill="#083157"/>
        <path d="m60.581,109.819c-2.182-1.419-2.207-4.937-.093-8.187s5.309-4.607,7.492-3.188c2.182,1.419,2.283,4.921.169,8.171-2.114,3.25-5.386,4.623-7.568,3.204Z" fill="#083157"/>
      </g>
      <g>
        <path d="m157.154,128.918c-1.387,0-2.473,1.14-2.471,2.527,0,.009,0,.017,0,.026,0,11.632-9.463,21.095-21.095,21.095s-21.095-9.463-21.095-21.095c0-.009,0-.017,0-.026.002-1.387-1.085-2.527-2.471-2.527h-2.55c-1.342,0-2.467,1.069-2.475,2.411,0,.047,0,.095,0,.142,0,15.791,12.801,28.591,28.591,28.591s28.591-12.801,28.591-28.591c0-.047,0-.095,0-.142-.008-1.342-1.133-2.411-2.475-2.411h-2.55Z" fill="#083157"/>
        <path d="m247.012,128.918c-1.387,0-2.473,1.14-2.471,2.527,0,.009,0,.017,0,.026,0,11.632-9.463,21.095-21.095,21.095s-21.095-9.463-21.095-21.095c0-.009,0-.017,0-.026.002-1.387-1.085-2.527-2.471-2.527h-2.549c-1.342,0-2.467,1.069-2.475,2.411,0,.047,0,.095,0,.142,0,15.791,12.801,28.591,28.591,28.591s28.591-12.801,28.591-28.591c0-.047,0-.095,0-.142-.008-1.342-1.133-2.411-2.475-2.411h-2.549Z" fill="#083157"/>
        <path d="m233.467,179.719c-2.084,0-3.734,1.706-3.732,3.79,0,.013,0,.026,0,.039,0,28.805-23.434,52.239-52.239,52.239s-52.239-23.434-52.239-52.239c0-.013,0-.026,0-.039.002-2.084-1.648-3.79-3.732-3.79h-.015c-2.05,0-3.743,1.647-3.749,3.697,0,.044,0,.088,0,.132,0,32.991,26.744,59.735,59.735,59.735s59.735-26.744,59.735-59.735c0-.044,0-.088,0-.132-.006-2.05-1.699-3.697-3.749-3.697h-.015Z" fill="#083157"/>
      </g>
    </g>
  </g>
</svg>